<?xml version="1.0" encoding="UTF-8"?>
<svg width="24px" height="24px" viewBox="0 0 24 24" version="1.1" xmlns="http://www.w3.org/2000/svg" xmlns:xlink="http://www.w3.org/1999/xlink">
    <title>icon/Discount</title>
    <g id="icon/Discount" stroke="none" stroke-width="1" fill="none" fill-rule="evenodd">
        <path d="M10.7109375,23.375 C11.0976562,23.375 11.4270833,23.2389323 11.6992188,22.9667969 L22.5703125,12.0957031 C22.8710938,11.7949219 23.0214844,11.2363281 23.0214844,10.4199219 L23.0214844,3.05078125 C23.0214844,2.59244792 22.8567708,2.19856771 22.5273438,1.86914062 C22.1979167,1.53971354 21.8040365,1.375 21.3457031,1.375 L13.9335938,1.375 C13.1458333,1.375 12.6015625,1.52539062 12.3007812,1.82617188 L1.4296875,12.6972656 C1.15755208,12.969401 1.02148438,13.2988281 1.02148438,13.6855469 C1.02148438,13.8717448 1.05729167,14.0472005 1.12890625,14.2119141 C1.20052083,14.3766276 1.30078125,14.5234375 1.4296875,14.6523438 L9.74414062,22.9667969 C10.0019531,23.2389323 10.3242188,23.375 10.7109375,23.375 Z M10.7960379,21.375 L3.02148438,13.6004464 L13.1866629,3.43526786 C13.2000558,3.421875 13.2201451,3.41183036 13.2469308,3.40513393 C13.2737165,3.3984375 13.3071987,3.39508929 13.3473772,3.39508929 C13.3875558,3.39508929 13.4277344,3.39174107 13.4679129,3.38504464 C13.5080915,3.37834821 13.5516183,3.375 13.5984933,3.375 L20.7402344,3.375 C20.8205915,3.375 20.8875558,3.40178571 20.9411272,3.45535714 C20.9946987,3.50892857 21.0214844,3.57589286 21.0214844,3.65625 L21.0214844,10.4665179 C21.0214844,10.8950893 21.0013951,11.1428571 20.9612165,11.2098214 L10.7960379,21.375 Z M16.5214844,10.625 C17.280599,10.625 17.9287109,10.3564453 18.4658203,9.81933594 C19.0029297,9.28222656 19.2714844,8.63411458 19.2714844,7.875 C19.2714844,7.37369792 19.1497396,6.91178385 18.90625,6.48925781 C18.6627604,6.06673177 18.3297526,5.73372396 17.9072266,5.49023438 C17.4847005,5.24674479 17.0227865,5.125 16.5214844,5.125 C15.7623698,5.125 15.1142578,5.39355469 14.5771484,5.93066406 C14.0400391,6.46777344 13.7714844,7.11588542 13.7714844,7.875 C13.7714844,8.37630208 13.8932292,8.83821615 14.1367188,9.26074219 C14.3802083,9.68326823 14.7132161,10.016276 15.1357422,10.2597656 C15.5582682,10.5032552 16.0201823,10.625 16.5214844,10.625 Z M16.5322266,9.25 C16.1526693,9.25 15.8268229,9.11751302 15.5546875,8.85253906 C15.2825521,8.5875651 15.1464844,8.26171875 15.1464844,7.875 C15.1464844,7.48828125 15.2825521,7.1624349 15.5546875,6.89746094 C15.8268229,6.63248698 16.1526693,6.5 16.5322266,6.5 C16.9117839,6.5 17.2340495,6.63248698 17.4990234,6.89746094 C17.7639974,7.1624349 17.8964844,7.48828125 17.8964844,7.875 C17.8964844,8.26171875 17.7604167,8.59114583 17.4882812,8.86328125 C17.2304688,9.12109375 16.9117839,9.25 16.5322266,9.25 Z" id="î•" fill="#000000" fill-rule="nonzero"></path>
        <g id="Group" transform="translate(7.000000, 11.000000)">
            <circle id="Oval" stroke="#000000" cx="1.5" cy="1.5" r="1"></circle>
            <circle id="Oval-Copy" stroke="#000000" cx="5.5" cy="4.5" r="1"></circle>
            <rect id="Rectangle" fill="#000000" transform="translate(3.274453, 3.145701) rotate(44.000000) translate(-3.274453, -3.145701) " x="2.77445321" y="0.145701194" width="1" height="6" rx="0.5"></rect>
        </g>
    </g>
</svg>