<?xml version="1.0" encoding="UTF-8"?>
<svg width="25px" height="24px" viewBox="0 0 25 24" version="1.1" xmlns="http://www.w3.org/2000/svg" xmlns:xlink="http://www.w3.org/1999/xlink">
    <title>icon/headline copy 5</title>
    <g id="Home" stroke="none" stroke-width="1" fill="none" fill-rule="evenodd">
        <g id="Home-Final" transform="translate(-1829.000000, -37.000000)">
            <g id="Group-22" transform="translate(23.000000, 28.000000)">
                <g id="Group-9" transform="translate(1305.500000, 9.000000)">
                    <g id="Group" transform="translate(501.000000, 0.000000)">
                        <rect id="Rectangle" fill-opacity="0.01" fill="#000000" fill-rule="nonzero" x="0" y="0" width="24" height="24"></rect>
                        <path d="M12,22 C17.52285,22 22,17.52285 22,12 C22,6.47715 17.52285,2 12,2 C6.47715,2 2,6.47715 2,12 C2,17.52285 6.47715,22 12,22 Z" id="Path" stroke="#000000" stroke-width="1.5"></path>
                        <path d="M2,10.4202 C3.507425,9.7084 4.62233,9.60925 5.3447,10.1227 C6.4283,10.89295 6.56415,14.032 9.02875,12.53175 C11.49335,11.0315 7.97335,10.4202 8.7375,8.24695 C9.50165,6.0737 12.00415,7.76185 12.25295,5.38135 C12.41875,3.79431 10.5204,3.187065 6.5578,3.559605" id="Path" stroke="#000000" stroke-width="1.5"></path>
                        <path d="M18.00005,4 C15.14285,6.4943 14.14495,8.00055 15.00635,8.51865 C16.2984,9.29585 16.84665,8.20165 18.42335,8.51865 C20.00005,8.8357 19.65865,10.97285 18.82935,10.97285 C18.00005,10.97285 13.705,10.4259 13.92135,12.9325 C14.13765,15.43905 16.7211,15.81015 16.7211,17.21055 C16.7211,18.14415 16.1495,19.573 15.00635,21.4971" id="Path" stroke="#000000" stroke-width="1.5" stroke-linecap="round"></path>
                        <path d="M3.052305,16.4632 C3.50805,16.2644 3.850635,16.1187 4.080055,16.026 C6.0036,15.2489 7.4309,15.0657 8.36185,15.4765 C10.0081,16.20295 9.3752,17.67005 9.89085,18.21055 C10.40645,18.75105 11.69405,18.5938 11.69405,19.622 C11.69405,20.3075 11.4638,21.08185 11.0033,21.94505" id="Path" stroke="#000000" stroke-width="1.5" stroke-linecap="round"></path>
                    </g>
                </g>
            </g>
        </g>
    </g>
</svg>