<?xml version="1.0" encoding="UTF-8"?>
<svg width="150px" height="40px" viewBox="0 0 150 40" version="1.1" xmlns="http://www.w3.org/2000/svg" xmlns:xlink="http://www.w3.org/1999/xlink">
    <title>Group 15</title>
    <defs>
        <polygon id="path-1" points="0 0 10.6451613 0 10.6451613 10.4761905 0 10.4761905"></polygon>
        <polygon id="path-3" points="0 0 38.7096774 0 38.7096774 33.3333333 0 33.3333333"></polygon>
    </defs>
    <g id="Mobile" stroke="none" stroke-width="1" fill="none" fill-rule="evenodd">
        <g id="Forgot-Password-Success" transform="translate(-112.000000, -64.000000)">
            <g id="Group-15" transform="translate(112.000000, 64.000000)">
                <path d="M89.5804723,39.047619 C88.8046059,39.047619 88.1756807,38.4238043 88.1756807,37.6542423 L88.1756807,24.5829753 L78.6107353,8.16537471 C78.1957599,7.45308053 78.3582943,6.54850036 79.0983385,5.98696954 C79.3371531,5.80569123 79.6337046,5.71428571 79.9344705,5.71428571 L85.8806725,5.71428571 C86.3987597,5.71428571 86.8747031,5.99714119 87.1191369,6.45012796 L92.4212419,16.2749666 L97.6369523,6.45807021 C97.8799813,6.00062463 98.3584533,5.71428571 98.8797715,5.71428571 L104.904501,5.71428571 C105.206251,5.71428571 105.503645,5.80624858 105.742881,5.98850225 C106.482363,6.55212314 106.642931,7.45739999 106.225708,8.16927616 L96.6024638,24.5833933 L96.6024638,37.6542423 C96.6024638,38.4238043 95.9735386,39.047619 95.1976721,39.047619 L89.5804723,39.047619 Z" id="Fill-1" fill="#000000"></path>
                <path d="M125.464983,31.9685686 C126.056414,31.8158545 126.568156,31.5982091 127.00035,31.3156323 C127.432544,31.0331948 127.766235,30.6703595 128.001285,30.2275444 C128.236197,29.7845899 128.353792,29.272942 128.353792,28.6926006 C128.353792,27.6234626 127.944425,26.768208 127.125415,26.1266974 C126.306682,25.4851867 125.093524,25.1644314 123.486079,25.1644314 L116.997639,25.1644314 L116.997639,32.1977791 L123.486079,32.1977791 C124.213918,32.1977791 124.873553,32.121422 125.464983,31.9685686 L125.464983,31.9685686 Z M116.997639,19.0018048 L122.667207,19.0018048 C123.895583,19.0018048 124.903989,18.7268916 125.692563,18.1770651 C126.480998,17.6272387 126.875285,16.8406775 126.875285,15.8173817 C126.875285,14.8246007 126.507561,14.041941 125.772112,13.4691239 C125.036663,12.896446 123.918272,12.6176314 122.417077,12.6329585 L116.997639,12.6329585 L116.997639,19.0018048 Z M134.836559,24.3855338 C135.913169,25.836457 136.451613,27.6234626 136.451613,29.7464114 C136.451613,31.1056504 136.231781,32.3465917 135.79184,33.4692353 C135.352175,34.5917396 134.700011,35.5691934 133.835624,36.4015967 C132.971375,37.2339999 131.860592,37.8830348 130.503416,38.3488406 C129.146101,38.8146465 127.603125,39.047619 125.874488,39.047619 L110.738301,39.047619 C109.974215,39.047619 109.354839,38.4238043 109.354839,37.6542423 L109.354839,7.10766244 C109.354839,6.33810047 109.974215,5.71428571 110.738301,5.71428571 L123.849929,5.71428571 C125.669736,5.71428571 127.269572,5.89765409 128.649576,6.26411217 C130.029441,6.63070959 131.166786,7.16534823 132.061471,7.86788878 C132.956156,8.57042932 133.627274,9.4217825 134.074548,10.422227 C134.521821,11.4226715 134.745527,12.5719286 134.745527,13.8701377 C134.745527,14.6031932 134.662242,15.3133973 134.495397,16.0006107 C134.328551,16.6879634 134.063203,17.3638905 133.699214,18.0281132 C133.335364,18.6926145 132.834827,19.3034709 132.197881,19.8609609 C131.561073,20.4184509 130.810406,20.8726917 129.946019,21.2241014 L129.946019,21.3156462 C132.129676,21.9113148 133.75981,22.9346106 134.836559,24.3855338 L134.836559,24.3855338 Z" id="Fill-3" fill="#000000"></path>
                <path d="M141.916882,13.7401189 L147.107038,11.5401541 C148.019174,11.1535827 149.032258,11.8189473 149.032258,12.8047592 L149.032258,37.6728988 C149.032258,38.4320193 148.413151,39.047619 147.649396,39.047619 L141.705442,39.047619 C140.941688,39.047619 140.322581,38.4320193 140.322581,37.6728988 L140.322581,16.1388683 C140.322581,15.0939434 140.949985,14.149923 141.916882,13.7401189" id="Fill-5" fill="#000000"></path>
                <path d="M58.3670319,12.880517 C57.0469243,12.880517 55.792872,13.1201204 54.6396108,13.5927799 C53.4866343,14.0655787 52.4683308,14.7352144 51.612745,15.5831597 C50.7597218,16.4287369 50.0761074,17.5073701 49.5808358,18.7889697 C49.0825745,20.0780917 48.8298849,21.5038712 48.8298849,23.0267458 C48.8298849,25.9044941 49.7217725,28.2856226 51.480777,30.1038223 C53.2335176,31.9151962 55.5386164,32.8336295 58.3322959,32.8336295 C60.9446084,32.8336295 63.1873533,31.9135245 64.9980346,30.0989467 C66.8114208,28.2811648 67.7309263,25.901708 67.7309263,23.0267458 C67.7309263,20.1445398 66.8306394,17.7037891 65.0549788,15.7720564 C63.2915611,13.8534182 61.0414134,12.880517 58.3670319,12.880517 M57.1353301,40 C55.2870657,40 53.497169,39.7424263 51.8154662,39.2345229 C50.1274995,38.7245298 48.5868758,37.9593313 47.2365879,36.9599622 C45.8908555,35.964215 44.7102611,34.7695413 43.7271205,33.4093741 C42.7419869,32.0465601 41.973241,30.4531975 41.4422369,28.6737244 C40.9133682,26.9007985 40.6451613,24.9874539 40.6451613,22.9870441 C40.6451613,20.5443432 41.0678292,18.2214439 41.9012067,16.0832622 C42.7358654,13.9417371 43.8933974,12.0927511 45.3412022,10.5872895 C46.7902882,9.0808528 48.5457337,7.87921388 50.5585667,7.01594512 C52.573108,6.15225844 54.7634643,5.71428571 57.0688478,5.71428571 C61.1487531,5.71428571 64.4979227,7.01260182 67.0296592,9.57440794 L67.0296592,7.59447589 C67.0296592,6.82509822 67.6670065,6.20143286 68.4532627,6.20143286 L74.0602675,6.20143286 C74.8465237,6.20143286 75.483871,6.82509822 75.483871,7.59447589 L75.483871,38.0872126 C75.483871,38.8565903 74.8465237,39.4802556 74.0602675,39.4802556 L68.7851047,39.4802556 C67.9989908,39.4802556 67.3615012,38.8565903 67.3615012,38.0872126 L67.3615012,35.7604129 C64.81923,38.5740812 61.3810852,40 57.1353301,40" id="Fill-7" fill="#000000"></path>
                <g id="Group-11" transform="translate(139.354839, 0.000000)">
                    <mask id="mask-2" fill="white">
                        <use xlink:href="#path-1"></use>
                    </mask>
                    <g id="Clip-10"></g>
                    <path d="M5.32262355,1.44497723 C7.44784014,1.44497723 9.17690263,3.14658971 9.17690263,5.23806709 C9.17690263,7.32954447 7.44784014,9.03115695 5.32262355,9.03115695 C3.19740696,9.03115695 1.46834447,7.32954447 1.46834447,5.23806709 C1.46834447,3.14658971 3.19740696,1.44497723 5.32262355,1.44497723 M5.32262355,10.4761905 C8.25745327,10.4761905 10.6452471,8.12630445 10.6452471,5.23806709 C10.6452471,2.34982972 8.25745327,-5.62981797e-05 5.32262355,-5.62981797e-05 C2.38779383,-5.62981797e-05 0,2.34982972 0,5.23806709 C0,8.12630445 2.38779383,10.4761905 5.32262355,10.4761905" id="Fill-9" fill="#000000" mask="url(#mask-2)"></path>
                </g>
                <g id="Group-14" transform="translate(0.000000, 5.714286)">
                    <mask id="mask-4" fill="white">
                        <use xlink:href="#path-3"></use>
                    </mask>
                    <g id="Clip-13"></g>
                    <path d="M38.707206,31.8585834 L36.8875232,1.31200352 C36.8435558,0.575325249 36.2227645,0 35.4716312,0 L27.0269131,0 C26.3010257,0 25.69229,0.537425402 25.6165526,1.24651482 C25.1363152,5.74043342 23.2338035,20.8465878 19.3548865,20.8465878 C15.7143863,20.8465878 13.6405436,5.7033696 13.1074035,1.23007297 C13.0237236,0.528229116 12.4181082,0 11.6988868,0 L3.23800001,0 C2.48686672,0 1.86607549,0.575325249 1.82210809,1.31200352 L0.00242529819,31.8585834 C-0.0452296838,32.6587997 0.602509312,33.3333333 1.41831722,33.3333333 L8.33921053,33.3333333 C9.14523215,33.3333333 9.78928356,32.6742661 9.75637893,31.8831068 L9.11417131,16.451599 C9.10183208,16.1562031 9.51640205,16.0653549 9.63298656,16.3378994 L16.5335981,32.4578747 C16.7549953,32.9749568 17.2701229,33.3111786 17.8409899,33.3111786 L20.8682159,33.3111786 C21.4392247,33.3111786 21.954636,32.9746782 22.1757494,32.4573174 L29.0765029,16.3167201 C29.1930874,16.0441756 29.6077992,16.1348844 29.5954599,16.4304196 L28.9531105,31.8831068 C28.9202059,32.6742661 29.5642573,33.3333333 30.3702789,33.3333333 L37.291314,33.3333333 C38.1072638,33.3333333 38.7548609,32.6587997 38.707206,31.8585834" id="Fill-12" fill="#000000" mask="url(#mask-4)"></path>
                </g>
            </g>
        </g>
    </g>
</svg>