<?xml version="1.0" encoding="UTF-8"?>
<svg width="25px" height="24px" viewBox="0 0 25 24" version="1.1" xmlns="http://www.w3.org/2000/svg" xmlns:xlink="http://www.w3.org/1999/xlink">
    <title>icon/headline copy 6</title>
    <g id="Home" stroke="none" stroke-width="1" fill="none" fill-rule="evenodd">
        <g id="Home-Final" transform="translate(-1872.000000, -37.000000)">
            <g id="Group-22" transform="translate(23.000000, 28.000000)">
                <g id="Group-9" transform="translate(1305.500000, 9.000000)">
                    <g id="Group-47" transform="translate(501.000000, 0.000000)">
                        <g id="Group" transform="translate(43.000000, 0.000000)">
                            <rect id="Rectangle" fill-opacity="0.01" fill="#000000" fill-rule="nonzero" x="0" y="0" width="24" height="24"></rect>
                            <path d="M18,16 C20.20915,16 22,14.20915 22,12 C22,9.79085 20.20915,8 18,8" id="Path"></path>
                            <path d="M18,16 L18,16 C20.20915,16 22,14.20915 22,12 C22,9.79085 20.20915,8 18,8" id="Path" stroke="#000000" stroke-width="1.5" stroke-linejoin="round"></path>
                            <path d="M6,8 C3.79086,8 2,9.79085 2,12 C2,14.20915 3.79086,16 6,16" id="Path"></path>
                            <path d="M6,8 C3.79086,8 2,9.79085 2,12 C2,14.20915 3.79086,16 6,16 L6,16" id="Path" stroke="#000000" stroke-width="1.5" stroke-linejoin="round"></path>
                            <path d="M6,16 L6,15.75 L6,14.5 L6,12 L6,8 C6,4.68629 8.6863,2 12,2 C15.3137,2 18,4.68629 18,8 L18,16 C18,19.3137 15.3137,22 12,22" id="Path" stroke="#000000" stroke-width="1.5" stroke-linecap="round" stroke-linejoin="round"></path>
                        </g>
                    </g>
                </g>
            </g>
        </g>
    </g>
</svg>