<?xml version="1.0" encoding="UTF-8"?>
<svg width="28px" height="28px" viewBox="0 0 28 28" version="1.1" xmlns="http://www.w3.org/2000/svg" xmlns:xlink="http://www.w3.org/1999/xlink">
    <title>icon/headline copy 25</title>
    <g id="Home" stroke="none" stroke-width="1" fill="none" fill-rule="evenodd">
        <g id="Home-Final" transform="translate(-221.000000, -8379.000000)" fill="#000000">
            <g id="Group-75" transform="translate(0.000000, 8104.000000)">
                <g id="Text/body1-BOLD-Copy-3" transform="translate(169.000000, 172.000000)">
                    <g id="Group-21" transform="translate(0.000000, 103.000000)">
                        <g id="icon/headline-copy-25" transform="translate(52.000000, 0.000000)">
                            <path d="M8.16433333,0 C3.66158333,0 0,3.66625 0,8.169 L0,19.8356667 C0,24.3384167 3.66625,28 8.169,28 L19.8356667,28 C24.3384167,28 28,24.33375 28,19.831 L28,8.16433333 C28,3.66158333 24.33375,0 19.831,0 L8.16433333,0 Z M22.1666667,4.66666667 C22.81125,4.66666667 23.3333333,5.18875 23.3333333,5.83333333 C23.3333333,6.47791667 22.81125,7 22.1666667,7 C21.5220833,7 21,6.47791667 21,5.83333333 C21,5.18875 21.5220833,4.66666667 22.1666667,4.66666667 Z M14,7 C17.8599167,7 21,10.1400833 21,14 C21,17.8599167 17.8599167,21 14,21 C10.1400833,21 7,17.8599167 7,14 C7,10.1400833 10.1400833,7 14,7 Z M14,9.33333333 C11.4228333,9.33333333 9.33333333,11.4228333 9.33333333,14 C9.33333333,16.5771667 11.4228333,18.6666667 14,18.6666667 C16.5771667,18.6666667 18.6666667,16.5771667 18.6666667,14 C18.6666667,11.4228333 16.5771667,9.33333333 14,9.33333333 Z" id="icons8-instagram-60"></path>
                        </g>
                    </g>
                </g>
            </g>
        </g>
    </g>
</svg>