<?xml version="1.0" encoding="UTF-8"?>
<svg width="155px" height="42px" viewBox="0 0 155 42" version="1.1" xmlns="http://www.w3.org/2000/svg" xmlns:xlink="http://www.w3.org/1999/xlink">
    <title>Group 33</title>
    <defs>
        <polygon id="path-1" points="0 0 11 0 11 11 0 11"></polygon>
        <polygon id="path-3" points="0 0 40 0 40 35 0 35"></polygon>
    </defs>
    <g id="Home" stroke="none" stroke-width="1" fill="none" fill-rule="evenodd">
        <g id="Home-Final" transform="translate(-23.000000, -28.000000)">
            <g id="Group-15" transform="translate(23.000000, 28.000000)">
                <path d="M92.566488,41 C91.7647594,41 91.11487,40.3449945 91.11487,39.5369544 L91.11487,25.812124 L81.2310932,8.57364344 C80.8022852,7.82573455 80.9702374,6.87592538 81.7349498,6.28631802 C81.9817249,6.09597579 82.2881614,6 82.5989528,6 L88.7433616,6 C89.2787184,6 89.7705265,6.29699825 90.0231081,6.77263436 L95.50195,17.0887149 L100.891517,6.78097372 C101.142647,6.30065586 101.637068,6 102.175764,6 L108.401318,6 C108.713126,6 109.020433,6.09656101 109.267644,6.28792737 C110.031775,6.87972929 110.197695,7.83026999 109.766565,8.57773997 L99.8225459,25.812563 L99.8225459,39.5369544 C99.8225459,40.3449945 99.1726565,41 98.3709279,41 L92.566488,41 Z" id="Fill-1" fill="#000000"></path>
                <path d="M129.64715,33.566997 C130.258294,33.4066472 130.787095,33.1781195 131.233695,32.8814139 C131.680295,32.5848546 132.02511,32.2038775 132.267995,31.7389216 C132.510737,31.2738194 132.632251,30.7365891 132.632251,30.1272306 C132.632251,29.0046358 132.209239,28.1066184 131.362929,27.4330322 C130.516905,26.759446 129.263308,26.422653 127.602281,26.422653 L120.897561,26.422653 L120.897561,33.807668 L127.602281,33.807668 C128.354382,33.807668 129.036005,33.7274931 129.64715,33.566997 L129.64715,33.566997 Z M120.897561,19.9518951 L126.756114,19.9518951 C128.025436,19.9518951 129.067456,19.6632362 129.882315,19.0859184 C130.697032,18.5086006 131.104461,17.6827114 131.104461,16.6082507 C131.104461,15.5658308 130.724479,14.7440381 129.964516,14.1425801 C129.204552,13.5412683 128.048881,13.2485129 126.497646,13.2646064 L120.897561,13.2646064 L120.897561,19.9518951 Z M139.331111,25.6048105 C140.443608,27.1282798 141,29.0046358 141,31.233732 C141,32.6609329 140.77284,33.9639213 140.318234,35.1426971 C139.863914,36.3213266 139.190011,37.3476531 138.296811,38.2216765 C137.403754,39.0956999 136.255946,39.7771865 134.85353,40.2662827 C133.450971,40.7553788 131.856562,41 130.070305,41 L114.429578,41 C113.640022,41 113,40.3449945 113,39.5369544 L113,7.46304556 C113,6.6550055 113.640022,6 114.429578,6 L127.97826,6 C129.858727,6 131.511891,6.1925368 132.937895,6.57731778 C134.363756,6.96224506 135.539012,7.52361565 136.46352,8.26128322 C137.388028,8.99895079 138.081517,9.89287162 138.543699,10.9433383 C139.005882,11.993805 139.237044,13.200525 139.237044,14.5636446 C139.237044,15.3333528 139.150984,16.0790672 138.978577,16.8006412 C138.80617,17.5223616 138.531977,18.232085 138.155855,18.9295188 C137.779876,19.6272453 137.262654,20.2686444 136.604477,20.854009 C135.946442,21.4393735 135.170753,21.9163263 134.277553,22.2853064 L134.277553,22.3814285 C136.533998,23.0068805 138.21847,24.0813412 139.331111,25.6048105 L139.331111,25.6048105 Z" id="Fill-3" fill="#000000"></path>
                <path d="M146.647445,14.4271248 L152.010606,12.1171618 C152.953146,11.7112618 154,12.4098947 154,13.4449972 L154,39.5565437 C154,40.3536203 153.360256,41 152.571043,41 L146.428957,41 C145.639744,41 145,40.3536203 145,39.5565437 L145,16.9458117 C145,15.8486406 145.648318,14.8574191 146.647445,14.4271248" id="Fill-5" fill="#000000"></path>
                <path d="M60.3125996,13.5245428 C58.9484885,13.5245428 57.6526344,13.7761264 56.4609312,14.2724189 C55.2695222,14.7688576 54.2172751,15.4719752 53.3331699,16.3623177 C52.4517126,17.2501737 51.745311,18.3827386 51.2335303,19.7284181 C50.7186604,21.0819963 50.4575477,22.5790648 50.4575477,24.1780831 C50.4575477,27.1997188 51.3791649,29.6999037 53.1968029,31.6090135 C55.0079682,33.510956 57.3899036,34.4753109 60.2767058,34.4753109 C62.9760953,34.4753109 65.2935985,33.5092008 67.1646358,31.603894 C69.0384681,29.6952231 69.9886238,27.1967934 69.9886238,24.1780831 C69.9886238,21.1517668 69.0583274,18.5889786 67.2234781,16.5606592 C65.4012798,14.5460891 63.0761272,13.5245428 60.3125996,13.5245428 M59.0398411,42 C57.1299679,42 55.280408,41.7295477 53.5426484,41.196249 C51.7984162,40.6607563 50.2064383,39.8572978 48.8111408,38.8079603 C47.4205507,37.7624258 46.2006031,36.5080184 45.1846912,35.0798428 C44.1667198,33.6488881 43.372349,31.9758574 42.8236448,30.1074106 C42.2771471,28.2458384 42,26.2368266 42,24.1363963 C42,21.5715603 42.4367568,19.1325161 43.2979136,16.8874253 C44.1603942,14.638824 45.3565107,12.6973887 46.8525756,11.116654 C48.3499644,9.53489544 50.1639248,8.27317458 52.2438522,7.36674237 C54.3255449,6.45987136 56.5889131,6 58.9711428,6 C63.1870449,6 66.6478535,7.36323191 69.2639812,10.0531283 L69.2639812,7.97419968 C69.2639812,7.16635314 69.9225734,6.5115045 70.7350381,6.5115045 L76.528943,6.5115045 C77.3414078,6.5115045 78,7.16635314 78,7.97419968 L78,39.9915733 C78,40.7994198 77.3414078,41.4542684 76.528943,41.4542684 L71.0779415,41.4542684 C70.2656239,41.4542684 69.6068845,40.7994198 69.6068845,39.9915733 L69.6068845,37.5484335 C66.979871,40.5027852 63.4271214,42 59.0398411,42" id="Fill-7" fill="#000000"></path>
                <g id="Group-11" transform="translate(144.000000, 0.000000)">
                    <mask id="mask-2" fill="white">
                        <use xlink:href="#path-1"></use>
                    </mask>
                    <g id="Clip-10"></g>
                    <path d="M5.50004433,1.51722609 C7.69610148,1.51722609 9.48279939,3.3039192 9.48279939,5.49997044 C9.48279939,7.69602169 7.69610148,9.4827148 5.50004433,9.4827148 C3.30398719,9.4827148 1.51728928,7.69602169 1.51728928,5.49997044 C1.51728928,3.3039192 3.30398719,1.51722609 5.50004433,1.51722609 M5.50004433,11 C8.53270172,11 11.0000887,8.53261968 11.0000887,5.49997044 C11.0000887,2.46732121 8.53270172,-5.91130887e-05 5.50004433,-5.91130887e-05 C2.46738695,-5.91130887e-05 0,2.46732121 0,5.49997044 C0,8.53261968 2.46738695,11 5.50004433,11" id="Fill-9" fill="#000000" mask="url(#mask-2)"></path>
                </g>
                <g id="Group-14" transform="translate(0.000000, 6.000000)">
                    <mask id="mask-4" fill="white">
                        <use xlink:href="#path-3"></use>
                    </mask>
                    <g id="Clip-13"></g>
                    <path d="M39.9974462,33.4515126 L38.1171073,1.3776037 C38.0716743,0.604091511 37.43019,0 36.654019,0 L27.9278103,0 C27.1777265,0 26.5486997,0.564296672 26.4704377,1.30884056 C25.9741924,6.02745509 24.0082636,21.8889172 20.0000494,21.8889172 C16.2381992,21.8889172 14.0952284,5.98853808 13.544317,1.29157662 C13.4578477,0.554640572 12.8320452,0 12.0888497,0 L3.34593334,0 C2.56976228,0 1.928278,0.604091511 1.88284503,1.3776037 L0.00250614146,33.4515126 C-0.0467373399,34.2917396 0.622592956,35 1.46559446,35 L8.61718422,35 C9.45007322,35 10.115593,34.3079795 10.0815916,33.4772622 L9.41797702,17.2741789 C9.40522648,16.9640133 9.83361546,16.8686227 9.95408612,17.1547944 L17.0847181,34.0807685 C17.3134951,34.6237047 17.8457937,34.9767376 18.4356895,34.9767376 L21.5638231,34.9767376 C22.1538655,34.9767376 22.6864572,34.6234121 22.9149411,34.0801833 L30.0457196,17.1325561 C30.1661903,16.8463844 30.5947258,16.9416287 30.5819753,17.2519406 L29.9182142,33.4772622 C29.8842127,34.3079795 30.5497325,35 31.3826215,35 L38.5343578,35 C39.3775059,35 40.0466896,34.2917396 39.9974462,33.4515126" id="Fill-12" fill="#000000" mask="url(#mask-4)"></path>
                </g>
            </g>
        </g>
    </g>
</svg>